<svg width="15" height="15" viewBox="0 0 15 15" fill="none" xmlns="http://www.w3.org/2000/svg">
<path d="M7.5 0.9375C3.87598 0.9375 0.9375 3.87598 0.9375 7.5C0.9375 11.124 3.87598 14.0625 7.5 14.0625C11.124 14.0625 14.0625 11.124 14.0625 7.5C14.0625 3.87598 11.124 0.9375 7.5 0.9375ZM9.61084 7.60107L6.41162 9.92871C6.39408 9.94131 6.37341 9.94884 6.35187 9.95046C6.33033 9.95208 6.30877 9.94773 6.28954 9.93789C6.27032 9.92805 6.25417 9.9131 6.24289 9.89468C6.23161 9.87626 6.22562 9.85509 6.22559 9.8335V5.18115C6.22551 5.15951 6.23144 5.13827 6.2427 5.11979C6.25396 5.10131 6.27012 5.08631 6.28938 5.07645C6.30865 5.06659 6.33026 5.06226 6.35184 5.06393C6.37342 5.06561 6.39411 5.07322 6.41162 5.08594L9.61084 7.41211C9.62595 7.4228 9.63828 7.43696 9.64679 7.4534C9.6553 7.46984 9.65974 7.48808 9.65974 7.50659C9.65974 7.5251 9.6553 7.54335 9.64679 7.55979C9.63828 7.57623 9.62595 7.59039 9.61084 7.60107V7.60107Z" fill="#04730F"/>
</svg>
